# xmcd CD database file
#
# Track frame offsets:
#	183
#	15098
#	28830
#	43433
#	57893
#	71555
#	92045
#	103160
#	114350
#	126840
#	140600
#	151510
#	165815
#	180170
#	193805
#	204983
#	221385
#	241798
#	269613
#
# Disc length: 3946 seconds
#
# Revision: 0
# Processed by: cddbd v1.5.1PL2 Copyright (c) Steve Scherf et al.
# Submitted via: CDex 1.51
#
DISCID=fa0f6813
DTITLE=Various Artist - Jumpin' at Capitol - Cool Sounds in Jazz
DYEAR=1992
DGENRE=Jazz
TTITLE0=Billy Holiday (Lady Day) - Trav'lin Light
TTITLE1=Benny Carter and his Orchestra - Love for Sale
TTITLE2=Stan Kenton and his Orchestra - The Peanut Vendor
TTITLE3=Woody Herman and his Orchestra (The Second Herd) - Early Autumn
TTITLE4=Benny Goodman and his Orchestra - Down South Camp Meetin'
TTITLE5=Les Brown and his Band of Renown - Mexican Hat Dance
TTITLE6=Nat King Cole Trio - Jumpi' at Capitol
TTITLE7=Lennie Tristano - Intuition
TTITLE8=Art Tatum - Somebody Loves Me
TTITLE9=Duke Ellington - Prelude to a Kiss
TTITLE10=The George Shearing Quintet - Lullaby of Birdland
TTITLE11=Coleman Hawkins - Hollywood Stampede
TTITLE12=Miles Davis - Venus de Milo
TTITLE13=Shorty Rogers and his Giants - Over the Rainbow
TTITLE14=Gerry Mulligan and his Tentette - Rocker
TTITLE15=The Serge Chaloff Sextet - What's New
TTITLE16=Cannonball Adderly Quintet - Work Song
TTITLE17=Caldera featuring Dianne Reeves - Sky Islands
TTITLE18=Dave Koz - Give It Up
EXTD=YEAR: 1992
EXTT0=
EXTT1=
EXTT2=
EXTT3=
EXTT4=
EXTT5=
EXTT6=
EXTT7=
EXTT8=
EXTT9=
EXTT10=
EXTT11=
EXTT12=
EXTT13=
EXTT14=
EXTT15=
EXTT16=
EXTT17=
EXTT18=
PLAYORDER=
